<?xml version="1.0" standalone="no"?>
<!DOCTYPE svg PUBLIC "-//W3C//DTD SVG 20010904//EN"
 "http://www.w3.org/TR/2001/REC-SVG-20010904/DTD/svg10.dtd">
<svg version="1.0" xmlns="http://www.w3.org/2000/svg"
 width="56.000000pt" height="58.000000pt" viewBox="0 0 56.000000 58.000000"
 preserveAspectRatio="xMidYMid meet">

<g transform="translate(0.000000,58.000000) scale(0.100000,-0.100000)"
fill="#000000" stroke="none">
<path d="M58 483 c-10 -2 -18 -13 -18 -24 0 -12 -7 -19 -20 -19 -19 0 -20 -7
-20 -175 l0 -175 280 0 280 0 0 175 c0 168 -1 175 -20 175 -13 0 -20 7 -20 19
0 37 -114 43 -191 10 l-49 -21 -49 21 c-47 20 -127 26 -173 14z m170 -33 l42
-19 0 -157 c0 -145 -1 -156 -17 -149 -66 28 -103 36 -145 32 l-48 -4 0 152 c0
83 3 155 7 158 14 15 119 6 161 -13z m270 -141 l2 -156 -47 4 c-43 4 -79 -4
-145 -32 -17 -7 -18 4 -18 149 l0 157 43 19 c30 14 59 19 102 18 l60 -3 3
-156z m-458 -32 l0 -143 78 1 c43 0 86 -5 97 -12 17 -10 0 -12 -92 -13 l-113
0 0 155 c0 131 2 155 15 155 13 0 15 -23 15 -143z m510 -12 l0 -155 -112 0
c-93 1 -110 3 -93 13 11 7 54 12 98 12 l77 -1 0 143 c0 120 2 143 15 143 13 0
15 -24 15 -155z"/>
</g>
</svg>
