<?xml version="1.0" standalone="no"?>
<!DOCTYPE svg PUBLIC "-//W3C//DTD SVG 20010904//EN"
 "http://www.w3.org/TR/2001/REC-SVG-20010904/DTD/svg10.dtd">
<svg version="1.0" xmlns="http://www.w3.org/2000/svg"
 width="100.000000pt" height="100.000000pt" viewBox="0 0 100.000000 100.000000"
 preserveAspectRatio="xMidYMid meet">

<g transform="translate(0.000000,100.000000) scale(0.100000,-0.100000)"
fill="currentColor" stroke="none">
<path d="M551 889 c-43 -70 -34 -151 19 -189 16 -12 62 -28 102 -36 105 -21
128 -33 144 -71 8 -18 18 -33 24 -33 35 0 3 83 -42 106 -16 8 -64 22 -105 30
-130 24 -162 73 -113 168 30 60 5 81 -29 25z"/>
<path d="M686 891 c-12 -18 1 -28 45 -34 50 -7 78 -32 88 -78 6 -29 12 -35 44
-40 20 -3 46 -14 58 -25 21 -19 22 -31 7 -129 -2 -12 3 -20 12 -20 19 0 42 81
34 122 -7 39 -55 83 -89 83 -17 0 -28 11 -46 48 -14 28 -35 52 -52 60 -40 19
-93 26 -101 13z"/>
<path d="M4 507 c-3 -8 -4 -52 -2 -98 l3 -84 495 0 495 0 0 95 0 95 -493 3
c-405 2 -493 0 -498 -11z m756 -87 l0 -60 -360 0 -360 0 0 60 0 60 360 0 360
0 0 -60z m100 0 l0 -60 -30 0 -30 0 0 60 0 60 30 0 30 0 0 -60z m100 0 l0 -60
-30 0 -30 0 0 60 0 60 30 0 30 0 0 -60z"/>
</g>
</svg>
