<?xml version="1.0" standalone="no"?>
<!DOCTYPE svg PUBLIC "-//W3C//DTD SVG 20010904//EN"
 "http://www.w3.org/TR/2001/REC-SVG-20010904/DTD/svg10.dtd">
<svg version="1.0" xmlns="http://www.w3.org/2000/svg"
 width="100.000000pt" height="100.000000pt" viewBox="0 0 100.000000 100.000000"
 preserveAspectRatio="xMidYMid meet">

<g transform="translate(0.000000,100.000000) scale(0.100000,-0.100000)"
fill="currentColor" stroke="none">
<path d="M531 889 c-43 -70 -34 -151 19 -189 16 -12 62 -28 102 -36 105 -21
128 -33 144 -71 8 -18 19 -33 24 -33 19 0 22 28 5 60 -19 37 -75 65 -150 75
-59 9 -120 37 -129 60 -11 30 -6 70 14 109 30 60 5 81 -29 25z"/>
<path d="M669 890 c-20 -13 -2 -27 42 -33 50 -7 75 -28 86 -75 8 -33 13 -37
48 -43 52 -9 78 -41 71 -89 -11 -78 -11 -85 4 -85 19 0 42 81 34 122 -7 39
-55 83 -89 83 -19 0 -28 10 -44 44 -10 24 -30 50 -43 57 -31 17 -94 28 -109
19z"/>
<path d="M70 502 c-22 -10 -42 -32 -54 -56 -17 -36 -18 -43 -5 -79 8 -22 27
-50 42 -61 28 -20 40 -21 488 -24 l459 -3 0 121 0 120 -447 0 c-407 0 -451 -2
-483 -18z m210 -28 c0 -3 -9 -17 -20 -31 -11 -14 -20 -33 -20 -43 0 -10 9 -29
20 -43 11 -14 20 -28 20 -31 0 -3 -43 -6 -95 -6 -88 0 -98 2 -120 25 -16 15
-25 36 -25 55 0 19 9 40 25 55 22 23 32 25 120 25 52 0 95 -3 95 -6z m520 -74
l0 -80 -220 0 c-121 0 -220 3 -220 6 0 3 9 17 20 31 11 14 20 33 20 43 0 10
-9 29 -20 43 -11 14 -20 28 -20 31 0 3 99 6 220 6 l220 0 0 -80z m80 0 c0 -73
-2 -80 -20 -80 -18 0 -20 7 -20 80 0 73 2 80 20 80 18 0 20 -7 20 -80z m80 0
c0 -73 -2 -80 -20 -80 -18 0 -20 7 -20 80 0 73 2 80 20 80 18 0 20 -7 20 -80z
m-610 25 c26 -32 -13 -81 -47 -59 -23 14 -28 41 -13 59 16 19 44 19 60 0z"/>
</g>
</svg>
