<?xml version="1.0" standalone="no"?>
<!DOCTYPE svg PUBLIC "-//W3C//DTD SVG 20010904//EN"
 "http://www.w3.org/TR/2001/REC-SVG-20010904/DTD/svg10.dtd">
<svg version="1.0" xmlns="http://www.w3.org/2000/svg"
 width="100.000000pt" height="100.000000pt" viewBox="0 0 100.000000 100.000000"
 preserveAspectRatio="xMidYMid meet">

<g transform="translate(0.000000,100.000000) scale(0.100000,-0.100000)"
fill="currentColor" stroke="none">
<path d="M707 934 c-4 -4 -7 -22 -7 -40 0 -28 -4 -33 -27 -36 -24 -3 -28 -8
-31 -39 -2 -27 -9 -38 -23 -42 -25 -7 -25 -27 1 -34 26 -7 26 -19 -1 -26 -28
-7 -19 -31 14 -37 14 -3 35 -17 46 -32 19 -23 21 -40 21 -155 0 -72 -3 -132
-6 -136 -3 -3 -26 5 -51 19 -51 27 -71 29 -106 13 -36 -16 -49 -53 -56 -160
-7 -106 -18 -129 -62 -129 -56 0 -59 16 -59 310 0 146 -4 280 -10 299 -11 39
-46 81 -68 81 -8 0 -20 8 -27 17 -10 13 -16 15 -27 6 -7 -7 -43 -13 -78 -15
-50 -2 -65 -7 -65 -18 0 -11 15 -16 65 -18 35 -2 70 -8 77 -14 9 -7 17 -7 29
2 13 11 19 10 37 -9 21 -21 22 -29 27 -314 4 -260 7 -296 23 -320 38 -59 114
-57 154 2 20 29 23 47 23 120 0 98 14 131 57 131 28 0 93 -36 93 -51 0 -5 -20
-59 -45 -121 -24 -61 -42 -115 -39 -119 7 -12 341 -12 348 -1 3 5 -16 62 -42
127 l-46 117 22 18 c17 14 19 20 9 28 -8 7 -18 7 -27 2 -8 -5 -18 -6 -22 -4
-4 3 -8 65 -8 137 1 124 2 134 24 159 13 14 34 28 47 30 30 4 37 28 10 35 -27
7 -27 19 -1 26 26 7 26 27 1 34 -14 4 -21 15 -23 42 -3 31 -7 36 -30 39 -23 3
-27 8 -30 40 -3 37 -3 37 -53 40 -28 2 -54 0 -58 -4z m73 -54 c0 -13 -7 -20
-20 -20 -13 0 -20 7 -20 20 0 13 7 20 20 20 13 0 20 -7 20 -20z m60 -80 c0
-18 -7 -20 -80 -20 -73 0 -80 2 -80 20 0 18 7 20 80 20 73 0 80 -2 80 -20z m0
-70 c0 -6 -33 -10 -80 -10 -47 0 -80 4 -80 10 0 6 33 10 80 10 47 0 80 -4 80
-10z m-35 -70 c-10 -11 -30 -20 -45 -20 -15 0 -35 9 -45 20 -18 20 -17 20 45
20 62 0 63 0 45 -20z m-25 -160 c0 -93 -1 -100 -20 -100 -19 0 -20 7 -20 100
0 93 1 100 20 100 19 0 20 -7 20 -100z m29 -191 c11 -29 21 -56 21 -60 0 -5
-31 -9 -70 -9 -38 0 -70 4 -70 9 0 4 10 31 21 60 19 44 26 51 49 51 23 0 30
-7 49 -51z m61 -155 c11 -25 20 -48 20 -50 0 -2 -58 -4 -130 -4 -71 0 -130 2
-130 4 0 2 9 25 20 50 l19 46 91 0 91 0 19 -46z"/>
</g>
</svg>
