<?xml version="1.0" standalone="no"?>
<!DOCTYPE svg PUBLIC "-//W3C//DTD SVG 20010904//EN"
 "http://www.w3.org/TR/2001/REC-SVG-20010904/DTD/svg10.dtd">
<svg version="1.0" xmlns="http://www.w3.org/2000/svg"
 width="56.000000pt" height="58.000000pt" viewBox="0 0 56.000000 58.000000"
 preserveAspectRatio="xMidYMid meet">

<g transform="translate(0.000000,58.000000) scale(0.100000,-0.100000)"
fill="#000000" stroke="none">
<path d="M231 514 c-12 -15 -21 -32 -21 -39 0 -27 41 -65 70 -65 29 0 70 38
70 65 0 27 -41 65 -70 65 -19 0 -36 -9 -49 -26z m90 -15 c18 -34 -3 -69 -41
-69 -38 0 -59 35 -41 69 16 29 66 29 82 0z"/>
<path d="M199 374 c-34 -6 -50 -25 -78 -92 -30 -71 -26 -96 18 -102 l33 -5
-41 -33 c-42 -34 -53 -66 -29 -90 17 -17 339 -17 356 0 23 23 13 56 -29 92
l-41 35 34 3 c43 4 47 28 17 100 -34 82 -44 89 -135 93 -44 2 -91 1 -105 -1z
m169 -23 c17 -4 31 -23 48 -61 41 -96 33 -103 -77 -75 -53 14 -65 14 -118 0
-110 -28 -118 -21 -77 75 28 63 38 68 136 68 36 0 76 -3 88 -7z m34 -204 c63
-56 62 -55 48 -77 -7 -11 -33 -16 -100 -19 -102 -3 -140 3 -140 24 0 13 28 24
108 40 18 4 30 11 27 15 -3 5 -11 7 -18 5 -7 -2 -38 -9 -69 -15 -50 -10 -58
-15 -67 -42 -10 -28 -14 -30 -43 -24 -28 6 -47 20 -48 37 0 12 116 104 139
111 55 14 103 -2 163 -55z"/>
<path d="M257 310 c-7 -20 -20 -31 -39 -35 -15 -4 -31 -11 -34 -17 -4 -7 5 -8
27 -3 40 9 59 22 59 41 0 8 5 14 10 14 6 0 10 -6 10 -14 0 -19 19 -32 59 -41
22 -5 31 -4 27 3 -3 6 -19 13 -34 17 -19 4 -32 15 -39 35 -6 17 -17 30 -23 30
-6 0 -17 -13 -23 -30z"/>
</g>
</svg>
