<?xml version="1.0" standalone="no"?>
<!DOCTYPE svg PUBLIC "-//W3C//DTD SVG 20010904//EN"
 "http://www.w3.org/TR/2001/REC-SVG-20010904/DTD/svg10.dtd">
<svg version="1.0" xmlns="http://www.w3.org/2000/svg"
 width="100.000000pt" height="100.000000pt" viewBox="0 0 100.000000 100.000000"
 preserveAspectRatio="xMidYMid meet">

<g transform="translate(0.000000,100.000000) scale(0.100000,-0.100000)"
fill="currentColor" stroke="none">
<path d="M850 935 c-45 -46 -70 -63 -82 -59 -11 3 -40 -10 -75 -35 -75 -51
-622 -601 -662 -666 l-31 -49 62 -63 62 -62 40 22 c54 29 627 595 678 670 24
36 37 64 33 75 -4 11 14 36 60 82 l65 66 -43 42 -43 42 -64 -65z m87 -11 c4
-11 -11 -33 -45 -67 -49 -49 -53 -51 -69 -34 -16 16 -15 20 32 67 52 52 72 61
82 34z m-115 -197 c-21 -37 -121 -147 -133 -147 -5 0 -9 9 -9 19 0 25 -56 81
-81 81 -10 0 -19 4 -19 8 0 12 90 96 135 126 l39 26 43 -42 42 -41 -17 -30z
m-197 -102 c36 -35 33 -77 -9 -122 -29 -32 -36 -35 -50 -24 -14 12 -13 16 9
43 29 35 30 41 9 62 -21 21 -27 20 -62 -9 -27 -22 -31 -23 -43 -9 -11 14 -8
21 24 50 45 42 87 45 122 9z m-166 -88 c8 -10 2 -21 -24 -47 -39 -38 -42 -51
-19 -74 22 -22 29 -21 73 19 35 31 40 33 52 19 11 -14 5 -24 -48 -75 -49 -48
-67 -59 -94 -59 -45 0 -79 33 -79 79 0 30 9 45 57 93 32 32 60 58 64 58 4 0
12 -6 18 -13z m-139 -222 c12 -11 33 -24 47 -30 25 -10 23 -12 -79 -110 -57
-55 -116 -106 -131 -114 -27 -14 -29 -13 -69 27 -40 40 -41 42 -27 69 8 15 59
74 114 131 l100 104 11 -28 c7 -16 22 -38 34 -49z"/>
</g>
</svg>
