<?xml version="1.0" standalone="no"?>
<!DOCTYPE svg PUBLIC "-//W3C//DTD SVG 20010904//EN"
 "http://www.w3.org/TR/2001/REC-SVG-20010904/DTD/svg10.dtd">
<svg version="1.0" xmlns="http://www.w3.org/2000/svg"
 width="56.000000pt" height="58.000000pt" viewBox="0 0 56.000000 58.000000"
 preserveAspectRatio="xMidYMid meet">

<g transform="translate(0.000000,58.000000) scale(0.100000,-0.100000)"
fill="#000000" stroke="none">
<path d="M290 560 c-11 -11 -20 -28 -20 -38 0 -41 69 -69 98 -40 20 20 14 65
-10 82 -30 21 -44 20 -68 -4z m70 -15 c15 -18 10 -45 -12 -59 -33 -20 -69 20
-54 60 7 18 50 18 66 -1z"/>
<path d="M201 441 c-38 -15 -48 -26 -68 -71 -27 -61 -29 -95 -8 -104 25 -9 42
3 60 45 27 60 29 40 3 -47 -13 -47 -38 -101 -60 -133 -21 -30 -38 -62 -38 -71
0 -21 20 -40 41 -40 18 0 99 97 120 143 10 21 15 24 30 16 15 -8 19 -22 19
-72 0 -40 6 -70 16 -85 35 -51 74 -8 74 84 0 54 -4 66 -39 117 -27 37 -38 62
-34 76 7 26 14 26 64 0 53 -26 84 -22 84 11 0 20 -11 31 -52 55 -28 17 -57 39
-63 51 -11 20 -62 45 -91 43 -8 0 -34 -8 -58 -18z m107 -11 c17 -11 32 -24 32
-29 0 -5 24 -23 54 -40 61 -34 73 -48 57 -64 -9 -9 -26 -5 -68 18 -54 28 -56
28 -69 10 -22 -29 -17 -51 21 -104 34 -47 36 -53 33 -123 -3 -65 -5 -73 -23
-73 -18 0 -21 8 -25 73 -4 63 -9 77 -30 94 -23 19 -25 19 -35 3 -28 -47 -67
-104 -94 -135 -28 -33 -30 -34 -47 -18 -17 17 -16 20 24 79 54 77 99 226 77
248 -13 13 -17 8 -36 -37 -15 -36 -27 -52 -40 -52 -25 0 -24 14 3 77 20 44 30
55 68 72 57 25 59 25 98 1z"/>
</g>
</svg>
